<svg width="269" height="269" viewBox="0 0 269 269" fill="none" xmlns="http://www.w3.org/2000/svg">
<circle cx="4.035" cy="4.035" r="4.035" fill="#3D72ED" fill-opacity="0.08"/>
<circle cx="28.245" cy="4.035" r="4.035" fill="#3D72ED" fill-opacity="0.08"/>
<circle cx="52.455" cy="4.035" r="4.035" fill="#3D72ED" fill-opacity="0.08"/>
<circle cx="76.665" cy="4.035" r="4.035" fill="#3D72ED" fill-opacity="0.08"/>
<circle cx="100.875" cy="4.035" r="4.035" fill="#3D72ED" fill-opacity="0.08"/>
<circle cx="125.085" cy="4.035" r="4.035" fill="#3D72ED" fill-opacity="0.08"/>
<circle cx="149.295" cy="4.035" r="4.035" fill="#3D72ED" fill-opacity="0.08"/>
<circle cx="173.505" cy="4.035" r="4.035" fill="#3D72ED" fill-opacity="0.08"/>
<circle cx="197.715" cy="4.035" r="4.035" fill="#3D72ED" fill-opacity="0.08"/>
<circle cx="221.925" cy="4.035" r="4.035" fill="#3D72ED" fill-opacity="0.08"/>
<circle cx="246.135" cy="4.035" r="4.035" fill="#3D72ED" fill-opacity="0.08"/>
<g clip-path="url(#clip0)">
<circle cx="4.035" cy="28.245" r="4.035" fill="#3D72ED" fill-opacity="0.08"/>
<circle cx="28.245" cy="28.245" r="4.035" fill="#3D72ED" fill-opacity="0.08"/>
<circle cx="52.455" cy="28.245" r="4.035" fill="#3D72ED" fill-opacity="0.08"/>
<circle cx="76.665" cy="28.245" r="4.035" fill="#3D72ED" fill-opacity="0.08"/>
<circle cx="100.875" cy="28.245" r="4.035" fill="#3D72ED" fill-opacity="0.08"/>
<circle cx="125.085" cy="28.245" r="4.035" fill="#3D72ED" fill-opacity="0.08"/>
<circle cx="149.295" cy="28.245" r="4.035" fill="#3D72ED" fill-opacity="0.08"/>
<circle cx="173.505" cy="28.245" r="4.035" fill="#3D72ED" fill-opacity="0.08"/>
<circle cx="197.715" cy="28.245" r="4.035" fill="#3D72ED" fill-opacity="0.08"/>
<circle cx="221.925" cy="28.245" r="4.035" fill="#3D72ED" fill-opacity="0.08"/>
<circle cx="246.135" cy="28.245" r="4.035" fill="#3D72ED" fill-opacity="0.08"/>
</g>
<g clip-path="url(#clip1)">
<circle cx="4.035" cy="52.455" r="4.035" fill="#3D72ED" fill-opacity="0.08"/>
<circle cx="28.245" cy="52.455" r="4.035" fill="#3D72ED" fill-opacity="0.08"/>
<circle cx="52.455" cy="52.455" r="4.035" fill="#3D72ED" fill-opacity="0.08"/>
<circle cx="76.665" cy="52.455" r="4.035" fill="#3D72ED" fill-opacity="0.08"/>
<circle cx="100.875" cy="52.455" r="4.035" fill="#3D72ED" fill-opacity="0.08"/>
<circle cx="125.085" cy="52.455" r="4.035" fill="#3D72ED" fill-opacity="0.08"/>
<circle cx="149.295" cy="52.455" r="4.035" fill="#3D72ED" fill-opacity="0.08"/>
<circle cx="173.505" cy="52.455" r="4.035" fill="#3D72ED" fill-opacity="0.08"/>
<circle cx="197.715" cy="52.455" r="4.035" fill="#3D72ED" fill-opacity="0.08"/>
<circle cx="221.925" cy="52.455" r="4.035" fill="#3D72ED" fill-opacity="0.08"/>
<circle cx="246.135" cy="52.455" r="4.035" fill="#3D72ED" fill-opacity="0.08"/>
</g>
<g clip-path="url(#clip2)">
<circle cx="4.035" cy="76.665" r="4.035" fill="#3D72ED" fill-opacity="0.08"/>
<circle cx="28.245" cy="76.665" r="4.035" fill="#3D72ED" fill-opacity="0.08"/>
<circle cx="52.455" cy="76.665" r="4.035" fill="#3D72ED" fill-opacity="0.08"/>
<circle cx="76.665" cy="76.665" r="4.035" fill="#3D72ED" fill-opacity="0.08"/>
<circle cx="100.875" cy="76.665" r="4.035" fill="#3D72ED" fill-opacity="0.08"/>
<circle cx="125.085" cy="76.665" r="4.035" fill="#3D72ED" fill-opacity="0.08"/>
<circle cx="149.295" cy="76.665" r="4.035" fill="#3D72ED" fill-opacity="0.08"/>
<circle cx="173.505" cy="76.665" r="4.035" fill="#3D72ED" fill-opacity="0.08"/>
<circle cx="197.715" cy="76.665" r="4.035" fill="#3D72ED" fill-opacity="0.08"/>
<circle cx="221.925" cy="76.665" r="4.035" fill="#3D72ED" fill-opacity="0.08"/>
<circle cx="246.135" cy="76.665" r="4.035" fill="#3D72ED" fill-opacity="0.08"/>
</g>
<g clip-path="url(#clip3)">
<circle cx="4.035" cy="100.875" r="4.035" fill="#3D72ED" fill-opacity="0.08"/>
<circle cx="28.245" cy="100.875" r="4.035" fill="#3D72ED" fill-opacity="0.08"/>
<circle cx="52.455" cy="100.875" r="4.035" fill="#3D72ED" fill-opacity="0.08"/>
<circle cx="76.665" cy="100.875" r="4.035" fill="#3D72ED" fill-opacity="0.08"/>
<circle cx="100.875" cy="100.875" r="4.035" fill="#3D72ED" fill-opacity="0.08"/>
<circle cx="125.085" cy="100.875" r="4.035" fill="#3D72ED" fill-opacity="0.08"/>
<circle cx="149.295" cy="100.875" r="4.035" fill="#3D72ED" fill-opacity="0.08"/>
<circle cx="173.505" cy="100.875" r="4.035" fill="#3D72ED" fill-opacity="0.08"/>
<circle cx="197.715" cy="100.875" r="4.035" fill="#3D72ED" fill-opacity="0.08"/>
<circle cx="221.925" cy="100.875" r="4.035" fill="#3D72ED" fill-opacity="0.08"/>
<circle cx="246.135" cy="100.875" r="4.035" fill="#3D72ED" fill-opacity="0.08"/>
</g>
<g clip-path="url(#clip4)">
<circle cx="4.035" cy="125.085" r="4.035" fill="#3D72ED" fill-opacity="0.08"/>
<circle cx="28.245" cy="125.085" r="4.035" fill="#3D72ED" fill-opacity="0.08"/>
<circle cx="52.455" cy="125.085" r="4.035" fill="#3D72ED" fill-opacity="0.08"/>
<circle cx="76.665" cy="125.085" r="4.035" fill="#3D72ED" fill-opacity="0.08"/>
<circle cx="100.875" cy="125.085" r="4.035" fill="#3D72ED" fill-opacity="0.08"/>
<circle cx="125.085" cy="125.085" r="4.035" fill="#3D72ED" fill-opacity="0.08"/>
<circle cx="149.295" cy="125.085" r="4.035" fill="#3D72ED" fill-opacity="0.08"/>
<circle cx="173.505" cy="125.085" r="4.035" fill="#3D72ED" fill-opacity="0.08"/>
<circle cx="197.715" cy="125.085" r="4.035" fill="#3D72ED" fill-opacity="0.08"/>
<circle cx="221.925" cy="125.085" r="4.035" fill="#3D72ED" fill-opacity="0.08"/>
<circle cx="246.135" cy="125.085" r="4.035" fill="#3D72ED" fill-opacity="0.08"/>
</g>
<g clip-path="url(#clip5)">
<circle cx="4.035" cy="149.295" r="4.035" fill="#3D72ED" fill-opacity="0.08"/>
<circle cx="28.245" cy="149.295" r="4.035" fill="#3D72ED" fill-opacity="0.08"/>
<circle cx="52.455" cy="149.295" r="4.035" fill="#3D72ED" fill-opacity="0.08"/>
<circle cx="76.665" cy="149.295" r="4.035" fill="#3D72ED" fill-opacity="0.08"/>
<circle cx="100.875" cy="149.295" r="4.035" fill="#3D72ED" fill-opacity="0.08"/>
<circle cx="125.085" cy="149.295" r="4.035" fill="#3D72ED" fill-opacity="0.08"/>
<circle cx="149.295" cy="149.295" r="4.035" fill="#3D72ED" fill-opacity="0.08"/>
<circle cx="173.505" cy="149.295" r="4.035" fill="#3D72ED" fill-opacity="0.08"/>
<circle cx="197.715" cy="149.295" r="4.035" fill="#3D72ED" fill-opacity="0.08"/>
<circle cx="221.925" cy="149.295" r="4.035" fill="#3D72ED" fill-opacity="0.08"/>
<circle cx="246.135" cy="149.295" r="4.035" fill="#3D72ED" fill-opacity="0.08"/>
</g>
<g clip-path="url(#clip6)">
<circle cx="4.035" cy="173.505" r="4.035" fill="#3D72ED" fill-opacity="0.08"/>
<circle cx="28.245" cy="173.505" r="4.035" fill="#3D72ED" fill-opacity="0.08"/>
<circle cx="52.455" cy="173.505" r="4.035" fill="#3D72ED" fill-opacity="0.08"/>
<circle cx="76.665" cy="173.505" r="4.035" fill="#3D72ED" fill-opacity="0.08"/>
<circle cx="100.875" cy="173.505" r="4.035" fill="#3D72ED" fill-opacity="0.08"/>
<circle cx="125.085" cy="173.505" r="4.035" fill="#3D72ED" fill-opacity="0.08"/>
<circle cx="149.295" cy="173.505" r="4.035" fill="#3D72ED" fill-opacity="0.08"/>
<circle cx="173.505" cy="173.505" r="4.035" fill="#3D72ED" fill-opacity="0.08"/>
<circle cx="197.715" cy="173.505" r="4.035" fill="#3D72ED" fill-opacity="0.08"/>
<circle cx="221.925" cy="173.505" r="4.035" fill="#3D72ED" fill-opacity="0.08"/>
<circle cx="246.135" cy="173.505" r="4.035" fill="#3D72ED" fill-opacity="0.08"/>
</g>
<g clip-path="url(#clip7)">
<circle cx="4.035" cy="197.715" r="4.035" fill="#3D72ED" fill-opacity="0.08"/>
<circle cx="28.245" cy="197.715" r="4.035" fill="#3D72ED" fill-opacity="0.08"/>
<circle cx="52.455" cy="197.715" r="4.035" fill="#3D72ED" fill-opacity="0.08"/>
<circle cx="76.665" cy="197.715" r="4.035" fill="#3D72ED" fill-opacity="0.08"/>
<circle cx="100.875" cy="197.715" r="4.035" fill="#3D72ED" fill-opacity="0.08"/>
<circle cx="125.085" cy="197.715" r="4.035" fill="#3D72ED" fill-opacity="0.08"/>
<circle cx="149.295" cy="197.715" r="4.035" fill="#3D72ED" fill-opacity="0.08"/>
<circle cx="173.505" cy="197.715" r="4.035" fill="#3D72ED" fill-opacity="0.08"/>
<circle cx="197.715" cy="197.715" r="4.035" fill="#3D72ED" fill-opacity="0.08"/>
<circle cx="221.925" cy="197.715" r="4.035" fill="#3D72ED" fill-opacity="0.08"/>
<circle cx="246.135" cy="197.715" r="4.035" fill="#3D72ED" fill-opacity="0.08"/>
</g>
<g clip-path="url(#clip8)">
<circle cx="4.035" cy="221.925" r="4.035" fill="#3D72ED" fill-opacity="0.08"/>
<circle cx="28.245" cy="221.925" r="4.035" fill="#3D72ED" fill-opacity="0.08"/>
<circle cx="52.455" cy="221.925" r="4.035" fill="#3D72ED" fill-opacity="0.08"/>
<circle cx="76.665" cy="221.925" r="4.035" fill="#3D72ED" fill-opacity="0.08"/>
<circle cx="100.875" cy="221.925" r="4.035" fill="#3D72ED" fill-opacity="0.08"/>
<circle cx="125.085" cy="221.925" r="4.035" fill="#3D72ED" fill-opacity="0.08"/>
<circle cx="149.295" cy="221.925" r="4.035" fill="#3D72ED" fill-opacity="0.08"/>
<circle cx="173.505" cy="221.925" r="4.035" fill="#3D72ED" fill-opacity="0.08"/>
<circle cx="197.715" cy="221.925" r="4.035" fill="#3D72ED" fill-opacity="0.08"/>
<circle cx="221.925" cy="221.925" r="4.035" fill="#3D72ED" fill-opacity="0.08"/>
<circle cx="246.135" cy="221.925" r="4.035" fill="#3D72ED" fill-opacity="0.08"/>
</g>
<g clip-path="url(#clip9)">
<circle cx="4.035" cy="246.135" r="4.035" fill="#3D72ED" fill-opacity="0.08"/>
<circle cx="28.245" cy="246.135" r="4.035" fill="#3D72ED" fill-opacity="0.08"/>
<circle cx="52.455" cy="246.135" r="4.035" fill="#3D72ED" fill-opacity="0.08"/>
<circle cx="76.665" cy="246.135" r="4.035" fill="#3D72ED" fill-opacity="0.08"/>
<circle cx="100.875" cy="246.135" r="4.035" fill="#3D72ED" fill-opacity="0.08"/>
<circle cx="125.085" cy="246.135" r="4.035" fill="#3D72ED" fill-opacity="0.08"/>
<circle cx="149.295" cy="246.135" r="4.035" fill="#3D72ED" fill-opacity="0.08"/>
<circle cx="173.505" cy="246.135" r="4.035" fill="#3D72ED" fill-opacity="0.08"/>
<circle cx="197.715" cy="246.135" r="4.035" fill="#3D72ED" fill-opacity="0.08"/>
<circle cx="221.925" cy="246.135" r="4.035" fill="#3D72ED" fill-opacity="0.08"/>
<circle cx="246.135" cy="246.135" r="4.035" fill="#3D72ED" fill-opacity="0.08"/>
</g>
<defs>
<clipPath id="clip0">
<rect width="269" height="24.21" fill="white" transform="translate(0 24.21)"/>
</clipPath>
<clipPath id="clip1">
<rect width="269" height="24.21" fill="white" transform="translate(0 48.42)"/>
</clipPath>
<clipPath id="clip2">
<rect width="269" height="24.21" fill="white" transform="translate(0 72.63)"/>
</clipPath>
<clipPath id="clip3">
<rect width="269" height="24.21" fill="white" transform="translate(0 96.84)"/>
</clipPath>
<clipPath id="clip4">
<rect width="269" height="24.21" fill="white" transform="translate(0 121.05)"/>
</clipPath>
<clipPath id="clip5">
<rect width="269" height="24.21" fill="white" transform="translate(0 145.26)"/>
</clipPath>
<clipPath id="clip6">
<rect width="269" height="24.21" fill="white" transform="translate(0 169.47)"/>
</clipPath>
<clipPath id="clip7">
<rect width="269" height="24.21" fill="white" transform="translate(0 193.68)"/>
</clipPath>
<clipPath id="clip8">
<rect width="269" height="24.21" fill="white" transform="translate(0 217.89)"/>
</clipPath>
<clipPath id="clip9">
<rect width="269" height="24.21" fill="white" transform="translate(0 242.1)"/>
</clipPath>
</defs>
</svg>
